<mxfile host="app.diagrams.net" agent="Mozilla/5.0 (Windows NT 10.0; Win64; x64) AppleWebKit/537.36 (KHTML, like Gecko) Chrome/128.0.0.0 Safari/537.36 OPR/114.0.0.0" version="26.0.8">
  <diagram name="Page-1" id="2YBvvXClWsGukQMizWep">
    <mxGraphModel dx="369" dy="342" grid="1" gridSize="10" guides="1" tooltips="1" connect="1" arrows="1" fold="1" page="1" pageScale="1" pageWidth="850" pageHeight="1100" math="0" shadow="0">
      <root>
        <mxCell id="0" />
        <mxCell id="1" parent="0" />
        <mxCell id="jswa-1yXb8lZyvC2wWHK-1" value="" style="shape=umlActor;verticalLabelPosition=bottom;verticalAlign=top;html=1;" vertex="1" parent="1">
          <mxGeometry x="60" y="50" width="30" height="60" as="geometry" />
        </mxCell>
        <mxCell id="jswa-1yXb8lZyvC2wWHK-5" value="" style="html=1;points=[[0,0,0,0,5],[0,1,0,0,-5],[1,0,0,0,5],[1,1,0,0,-5]];perimeter=orthogonalPerimeter;outlineConnect=0;targetShapes=umlLifeline;portConstraint=eastwest;newEdgeStyle={&quot;curved&quot;:0,&quot;rounded&quot;:0};" vertex="1" parent="1">
          <mxGeometry x="50" y="120" width="50" height="640" as="geometry" />
        </mxCell>
        <mxCell id="jswa-1yXb8lZyvC2wWHK-9" value="Třída&lt;div&gt;Application&lt;/div&gt;" style="shape=umlLifeline;perimeter=lifelinePerimeter;whiteSpace=wrap;html=1;container=1;dropTarget=0;collapsible=0;recursiveResize=0;outlineConnect=0;portConstraint=eastwest;newEdgeStyle={&quot;curved&quot;:0,&quot;rounded&quot;:0};" vertex="1" parent="1">
          <mxGeometry x="210" y="10" width="100" height="740" as="geometry" />
        </mxCell>
        <mxCell id="jswa-1yXb8lZyvC2wWHK-16" value="" style="html=1;points=[[0,0,0,0,5],[0,1,0,0,-5],[1,0,0,0,5],[1,1,0,0,-5]];perimeter=orthogonalPerimeter;outlineConnect=0;targetShapes=umlLifeline;portConstraint=eastwest;newEdgeStyle={&quot;curved&quot;:0,&quot;rounded&quot;:0};" vertex="1" parent="jswa-1yXb8lZyvC2wWHK-9">
          <mxGeometry x="45" y="140" width="10" height="60" as="geometry" />
        </mxCell>
        <mxCell id="jswa-1yXb8lZyvC2wWHK-46" value="createReservation(&lt;br&gt;&lt;div&gt;&lt;span style=&quot;background-color: light-dark(#ffffff, var(--ge-dark-color, #121212)); color: light-dark(rgb(0, 0, 0), rgb(255, 255, 255));&quot;&gt;ConsultationId&lt;/span&gt;:78,&lt;div&gt;&amp;nbsp;&quot;Pomoc s formátováním&quot;,&lt;/div&gt;&lt;div&gt;&amp;nbsp;Subject: &quot;APC&quot;)&lt;/div&gt;&lt;/div&gt;" style="html=1;verticalAlign=bottom;startArrow=oval;endArrow=block;startSize=8;curved=0;rounded=0;" edge="1" parent="jswa-1yXb8lZyvC2wWHK-9" target="jswa-1yXb8lZyvC2wWHK-44">
          <mxGeometry x="0.0323" y="10" relative="1" as="geometry">
            <mxPoint x="-107.5" y="279.17" as="sourcePoint" />
            <mxPoint x="42.5" y="279.17" as="targetPoint" />
            <mxPoint as="offset" />
          </mxGeometry>
        </mxCell>
        <mxCell id="jswa-1yXb8lZyvC2wWHK-47" value="Konzultace existuje" style="html=1;verticalAlign=bottom;endArrow=open;dashed=1;endSize=8;curved=0;rounded=0;" edge="1" parent="jswa-1yXb8lZyvC2wWHK-9">
          <mxGeometry relative="1" as="geometry">
            <mxPoint x="197.5" y="319.17" as="sourcePoint" />
            <mxPoint x="57.5" y="319.17" as="targetPoint" />
          </mxGeometry>
        </mxCell>
        <mxCell id="jswa-1yXb8lZyvC2wWHK-49" value="Chyba, Konzultaci&lt;div&gt;&amp;nbsp;si už zarezervoval někdo jiný&lt;/div&gt;" style="html=1;verticalAlign=bottom;endArrow=open;dashed=1;endSize=8;curved=0;rounded=0;" edge="1" parent="jswa-1yXb8lZyvC2wWHK-9" target="jswa-1yXb8lZyvC2wWHK-5">
          <mxGeometry x="-0.0159" y="-10" relative="1" as="geometry">
            <mxPoint x="47.5" y="390" as="sourcePoint" />
            <mxPoint x="-102.5" y="390" as="targetPoint" />
            <mxPoint as="offset" />
          </mxGeometry>
        </mxCell>
        <mxCell id="jswa-1yXb8lZyvC2wWHK-44" value="" style="html=1;points=[[0,0,0,0,5],[0,1,0,0,-5],[1,0,0,0,5],[1,1,0,0,-5]];perimeter=orthogonalPerimeter;outlineConnect=0;targetShapes=umlLifeline;portConstraint=eastwest;newEdgeStyle={&quot;curved&quot;:0,&quot;rounded&quot;:0};" vertex="1" parent="jswa-1yXb8lZyvC2wWHK-9">
          <mxGeometry x="47.5" y="279.17" width="10" height="110.83" as="geometry" />
        </mxCell>
        <mxCell id="jswa-1yXb8lZyvC2wWHK-10" value="Database" style="shape=umlLifeline;perimeter=lifelinePerimeter;whiteSpace=wrap;html=1;container=1;dropTarget=0;collapsible=0;recursiveResize=0;outlineConnect=0;portConstraint=eastwest;newEdgeStyle={&quot;curved&quot;:0,&quot;rounded&quot;:0};" vertex="1" parent="1">
          <mxGeometry x="360" y="10" width="100" height="740" as="geometry" />
        </mxCell>
        <mxCell id="jswa-1yXb8lZyvC2wWHK-20" value="" style="html=1;points=[[0,0,0,0,5],[0,1,0,0,-5],[1,0,0,0,5],[1,1,0,0,-5]];perimeter=orthogonalPerimeter;outlineConnect=0;targetShapes=umlLifeline;portConstraint=eastwest;newEdgeStyle={&quot;curved&quot;:0,&quot;rounded&quot;:0};" vertex="1" parent="jswa-1yXb8lZyvC2wWHK-10">
          <mxGeometry x="45" y="160" width="10" height="20" as="geometry" />
        </mxCell>
        <mxCell id="jswa-1yXb8lZyvC2wWHK-45" value="" style="html=1;points=[[0,0,0,0,5],[0,1,0,0,-5],[1,0,0,0,5],[1,1,0,0,-5]];perimeter=orthogonalPerimeter;outlineConnect=0;targetShapes=umlLifeline;portConstraint=eastwest;newEdgeStyle={&quot;curved&quot;:0,&quot;rounded&quot;:0};" vertex="1" parent="jswa-1yXb8lZyvC2wWHK-10">
          <mxGeometry x="45" y="290" width="10" height="29.17" as="geometry" />
        </mxCell>
        <mxCell id="jswa-1yXb8lZyvC2wWHK-81" value="" style="html=1;points=[[0,0,0,0,5],[0,1,0,0,-5],[1,0,0,0,5],[1,1,0,0,-5]];perimeter=orthogonalPerimeter;outlineConnect=0;targetShapes=umlLifeline;portConstraint=eastwest;newEdgeStyle={&quot;curved&quot;:0,&quot;rounded&quot;:0};" vertex="1" parent="jswa-1yXb8lZyvC2wWHK-10">
          <mxGeometry x="45" y="610" width="10" height="29.17" as="geometry" />
        </mxCell>
        <mxCell id="jswa-1yXb8lZyvC2wWHK-92" value="" style="html=1;points=[[0,0,0,0,5],[0,1,0,0,-5],[1,0,0,0,5],[1,1,0,0,-5]];perimeter=orthogonalPerimeter;outlineConnect=0;targetShapes=umlLifeline;portConstraint=eastwest;newEdgeStyle={&quot;curved&quot;:0,&quot;rounded&quot;:0};" vertex="1" parent="jswa-1yXb8lZyvC2wWHK-10">
          <mxGeometry x="45" y="680" width="10" height="60" as="geometry" />
        </mxCell>
        <mxCell id="jswa-1yXb8lZyvC2wWHK-17" value="createReservation(&lt;div&gt;ConsultationId:59,&lt;div&gt;&amp;nbsp;&quot;Pomoc s formátováním&quot;,&lt;/div&gt;&lt;div&gt;&amp;nbsp;Subject: &quot;APC&quot;)&lt;/div&gt;&lt;/div&gt;" style="html=1;verticalAlign=bottom;startArrow=oval;endArrow=block;startSize=8;curved=0;rounded=0;" edge="1" target="jswa-1yXb8lZyvC2wWHK-16" parent="1">
          <mxGeometry x="0.0323" y="10" relative="1" as="geometry">
            <mxPoint x="100" y="150" as="sourcePoint" />
            <mxPoint x="250" y="150" as="targetPoint" />
            <mxPoint as="offset" />
          </mxGeometry>
        </mxCell>
        <mxCell id="jswa-1yXb8lZyvC2wWHK-25" value="Nenalezeno" style="html=1;verticalAlign=bottom;endArrow=open;dashed=1;endSize=8;curved=0;rounded=0;" edge="1" parent="1">
          <mxGeometry relative="1" as="geometry">
            <mxPoint x="405" y="190" as="sourcePoint" />
            <mxPoint x="265" y="190" as="targetPoint" />
          </mxGeometry>
        </mxCell>
        <mxCell id="jswa-1yXb8lZyvC2wWHK-35" value="Select: Výběr konzultace&lt;div&gt;&amp;nbsp;s daným consultationId&lt;/div&gt;" style="html=1;verticalAlign=bottom;endArrow=block;curved=0;rounded=0;" edge="1" parent="1" target="jswa-1yXb8lZyvC2wWHK-20">
          <mxGeometry x="0.037" y="10" width="80" relative="1" as="geometry">
            <mxPoint x="270" y="170" as="sourcePoint" />
            <mxPoint x="405" y="160" as="targetPoint" />
            <mxPoint as="offset" />
          </mxGeometry>
        </mxCell>
        <mxCell id="jswa-1yXb8lZyvC2wWHK-36" value="Chyba, Učitel mezitím&lt;div&gt;konzultaci zrušil&lt;/div&gt;" style="html=1;verticalAlign=bottom;endArrow=open;dashed=1;endSize=8;curved=0;rounded=0;" edge="1" parent="1" target="jswa-1yXb8lZyvC2wWHK-5">
          <mxGeometry relative="1" as="geometry">
            <mxPoint x="250" y="210" as="sourcePoint" />
            <mxPoint x="110" y="210" as="targetPoint" />
          </mxGeometry>
        </mxCell>
        <mxCell id="jswa-1yXb8lZyvC2wWHK-48" value="Select: Výběr konzultace&lt;div&gt;&amp;nbsp;s daným consultationId&lt;/div&gt;" style="html=1;verticalAlign=bottom;endArrow=block;curved=0;rounded=0;" edge="1" parent="1" target="jswa-1yXb8lZyvC2wWHK-45">
          <mxGeometry x="0.037" y="10" width="80" relative="1" as="geometry">
            <mxPoint x="270" y="300" as="sourcePoint" />
            <mxPoint x="407.5" y="299.17" as="targetPoint" />
            <mxPoint as="offset" />
            <Array as="points">
              <mxPoint x="340" y="300" />
            </Array>
          </mxGeometry>
        </mxCell>
        <mxCell id="jswa-1yXb8lZyvC2wWHK-57" value="getStudentId" style="html=1;verticalAlign=bottom;endArrow=block;curved=0;rounded=0;" edge="1" parent="1" target="jswa-1yXb8lZyvC2wWHK-64">
          <mxGeometry x="0.4545" y="-10" width="80" relative="1" as="geometry">
            <mxPoint x="270" y="350" as="sourcePoint" />
            <mxPoint x="405" y="350" as="targetPoint" />
            <mxPoint as="offset" />
            <Array as="points">
              <mxPoint x="340" y="350" />
            </Array>
          </mxGeometry>
        </mxCell>
        <mxCell id="jswa-1yXb8lZyvC2wWHK-62" value="Consultation 78" style="shape=umlLifeline;perimeter=lifelinePerimeter;whiteSpace=wrap;html=1;container=1;dropTarget=0;collapsible=0;recursiveResize=0;outlineConnect=0;portConstraint=eastwest;newEdgeStyle={&quot;curved&quot;:0,&quot;rounded&quot;:0};" vertex="1" parent="1">
          <mxGeometry x="500" y="280" width="100" height="100" as="geometry" />
        </mxCell>
        <mxCell id="jswa-1yXb8lZyvC2wWHK-64" value="" style="html=1;points=[[0,0,0,0,5],[0,1,0,0,-5],[1,0,0,0,5],[1,1,0,0,-5]];perimeter=orthogonalPerimeter;outlineConnect=0;targetShapes=umlLifeline;portConstraint=eastwest;newEdgeStyle={&quot;curved&quot;:0,&quot;rounded&quot;:0};" vertex="1" parent="jswa-1yXb8lZyvC2wWHK-62">
          <mxGeometry x="45" y="60" width="10" height="40" as="geometry" />
        </mxCell>
        <mxCell id="jswa-1yXb8lZyvC2wWHK-66" value="Nalezeno StudentId153" style="html=1;verticalAlign=bottom;endArrow=open;dashed=1;endSize=8;curved=0;rounded=0;" edge="1" parent="1">
          <mxGeometry x="0.3777" relative="1" as="geometry">
            <mxPoint x="550" y="380" as="sourcePoint" />
            <mxPoint x="270" y="380" as="targetPoint" />
            <mxPoint as="offset" />
          </mxGeometry>
        </mxCell>
        <mxCell id="jswa-1yXb8lZyvC2wWHK-67" value="createReservation(&lt;br&gt;&lt;div&gt;&lt;span style=&quot;background-color: light-dark(#ffffff, var(--ge-dark-color, #121212)); color: light-dark(rgb(0, 0, 0), rgb(255, 255, 255));&quot;&gt;ConsultationId&lt;/span&gt;:79,&lt;div&gt;&amp;nbsp;&quot;Pomoc s formátováním&quot;,&lt;/div&gt;&lt;div&gt;&amp;nbsp;Subject: &quot;APC&quot;)&lt;/div&gt;&lt;/div&gt;" style="html=1;verticalAlign=bottom;startArrow=oval;endArrow=block;startSize=8;curved=0;rounded=0;" edge="1" parent="1" target="jswa-1yXb8lZyvC2wWHK-70">
          <mxGeometry x="0.0323" y="10" relative="1" as="geometry">
            <mxPoint x="102.5" y="479.17" as="sourcePoint" />
            <mxPoint x="252.5" y="479.17" as="targetPoint" />
            <mxPoint as="offset" />
          </mxGeometry>
        </mxCell>
        <mxCell id="jswa-1yXb8lZyvC2wWHK-68" value="Konzultace existuje" style="html=1;verticalAlign=bottom;endArrow=open;dashed=1;endSize=8;curved=0;rounded=0;" edge="1" parent="1">
          <mxGeometry relative="1" as="geometry">
            <mxPoint x="407.5" y="519.1700000000001" as="sourcePoint" />
            <mxPoint x="267.5" y="519.1700000000001" as="targetPoint" />
          </mxGeometry>
        </mxCell>
        <mxCell id="jswa-1yXb8lZyvC2wWHK-69" value="Úspěch" style="html=1;verticalAlign=bottom;endArrow=open;dashed=1;endSize=8;curved=0;rounded=0;" edge="1" parent="1">
          <mxGeometry x="-0.0159" relative="1" as="geometry">
            <mxPoint x="257.5" y="750" as="sourcePoint" />
            <mxPoint x="100" y="750" as="targetPoint" />
            <mxPoint as="offset" />
          </mxGeometry>
        </mxCell>
        <mxCell id="jswa-1yXb8lZyvC2wWHK-70" value="" style="html=1;points=[[0,0,0,0,5],[0,1,0,0,-5],[1,0,0,0,5],[1,1,0,0,-5]];perimeter=orthogonalPerimeter;outlineConnect=0;targetShapes=umlLifeline;portConstraint=eastwest;newEdgeStyle={&quot;curved&quot;:0,&quot;rounded&quot;:0};" vertex="1" parent="1">
          <mxGeometry x="257.5" y="449.17" width="10" height="300.83" as="geometry" />
        </mxCell>
        <mxCell id="jswa-1yXb8lZyvC2wWHK-71" value="" style="html=1;points=[[0,0,0,0,5],[0,1,0,0,-5],[1,0,0,0,5],[1,1,0,0,-5]];perimeter=orthogonalPerimeter;outlineConnect=0;targetShapes=umlLifeline;portConstraint=eastwest;newEdgeStyle={&quot;curved&quot;:0,&quot;rounded&quot;:0};" vertex="1" parent="1">
          <mxGeometry x="405" y="490" width="10" height="29.17" as="geometry" />
        </mxCell>
        <mxCell id="jswa-1yXb8lZyvC2wWHK-72" value="Select: Výběr konzultace&lt;div&gt;&amp;nbsp;s daným consultationId&lt;/div&gt;" style="html=1;verticalAlign=bottom;endArrow=block;curved=0;rounded=0;" edge="1" parent="1" target="jswa-1yXb8lZyvC2wWHK-71">
          <mxGeometry x="0.037" y="10" width="80" relative="1" as="geometry">
            <mxPoint x="270" y="490" as="sourcePoint" />
            <mxPoint x="407.5" y="489.17" as="targetPoint" />
            <mxPoint as="offset" />
            <Array as="points">
              <mxPoint x="340" y="490" />
            </Array>
          </mxGeometry>
        </mxCell>
        <mxCell id="jswa-1yXb8lZyvC2wWHK-73" value="getStudentId" style="html=1;verticalAlign=bottom;endArrow=block;curved=0;rounded=0;" edge="1" parent="1" target="jswa-1yXb8lZyvC2wWHK-75">
          <mxGeometry x="0.4545" y="-10" width="80" relative="1" as="geometry">
            <mxPoint x="270" y="540" as="sourcePoint" />
            <mxPoint x="405" y="540" as="targetPoint" />
            <mxPoint as="offset" />
            <Array as="points">
              <mxPoint x="340" y="540" />
            </Array>
          </mxGeometry>
        </mxCell>
        <mxCell id="jswa-1yXb8lZyvC2wWHK-74" value="Consultation 79" style="shape=umlLifeline;perimeter=lifelinePerimeter;whiteSpace=wrap;html=1;container=1;dropTarget=0;collapsible=0;recursiveResize=0;outlineConnect=0;portConstraint=eastwest;newEdgeStyle={&quot;curved&quot;:0,&quot;rounded&quot;:0};" vertex="1" parent="1">
          <mxGeometry x="500" y="470" width="100" height="100" as="geometry" />
        </mxCell>
        <mxCell id="jswa-1yXb8lZyvC2wWHK-75" value="" style="html=1;points=[[0,0,0,0,5],[0,1,0,0,-5],[1,0,0,0,5],[1,1,0,0,-5]];perimeter=orthogonalPerimeter;outlineConnect=0;targetShapes=umlLifeline;portConstraint=eastwest;newEdgeStyle={&quot;curved&quot;:0,&quot;rounded&quot;:0};" vertex="1" parent="jswa-1yXb8lZyvC2wWHK-74">
          <mxGeometry x="45" y="60" width="10" height="40" as="geometry" />
        </mxCell>
        <mxCell id="jswa-1yXb8lZyvC2wWHK-76" value="null" style="html=1;verticalAlign=bottom;endArrow=open;dashed=1;endSize=8;curved=0;rounded=0;" edge="1" parent="1">
          <mxGeometry x="0.3777" relative="1" as="geometry">
            <mxPoint x="550" y="570" as="sourcePoint" />
            <mxPoint x="270" y="570" as="targetPoint" />
            <mxPoint as="offset" />
          </mxGeometry>
        </mxCell>
        <mxCell id="jswa-1yXb8lZyvC2wWHK-79" value="Předmět existuje" style="html=1;verticalAlign=bottom;endArrow=open;dashed=1;endSize=8;curved=0;rounded=0;" edge="1" parent="1">
          <mxGeometry relative="1" as="geometry">
            <mxPoint x="405" y="649.1700000000001" as="sourcePoint" />
            <mxPoint x="265" y="649.1700000000001" as="targetPoint" />
          </mxGeometry>
        </mxCell>
        <mxCell id="jswa-1yXb8lZyvC2wWHK-80" value="Select: Výběr předmětu&lt;div&gt;&lt;span style=&quot;background-color: light-dark(#ffffff, var(--ge-dark-color, #121212)); color: light-dark(rgb(0, 0, 0), rgb(255, 255, 255));&quot;&gt;&amp;nbsp;s daným subjectId&lt;/span&gt;&lt;/div&gt;" style="html=1;verticalAlign=bottom;endArrow=block;curved=0;rounded=0;" edge="1" parent="1">
          <mxGeometry x="0.037" y="10" width="80" relative="1" as="geometry">
            <mxPoint x="267.5" y="620" as="sourcePoint" />
            <mxPoint x="402.5" y="620" as="targetPoint" />
            <mxPoint as="offset" />
            <Array as="points">
              <mxPoint x="337.5" y="620" />
            </Array>
          </mxGeometry>
        </mxCell>
        <mxCell id="jswa-1yXb8lZyvC2wWHK-94" value="Úspěch" style="html=1;verticalAlign=bottom;endArrow=open;dashed=1;endSize=8;curved=0;rounded=0;exitX=0;exitY=1;exitDx=0;exitDy=-5;" edge="1" source="jswa-1yXb8lZyvC2wWHK-92" parent="1">
          <mxGeometry relative="1" as="geometry">
            <mxPoint x="270" y="745" as="targetPoint" />
          </mxGeometry>
        </mxCell>
        <mxCell id="jswa-1yXb8lZyvC2wWHK-96" value="Update: Aktualizace&lt;div&gt;&amp;nbsp;konzultace v databázi&lt;/div&gt;" style="html=1;verticalAlign=bottom;endArrow=block;curved=0;rounded=0;entryX=0;entryY=0;entryDx=0;entryDy=5;" edge="1" parent="1" target="jswa-1yXb8lZyvC2wWHK-92">
          <mxGeometry relative="1" as="geometry">
            <mxPoint x="270" y="695" as="sourcePoint" />
            <mxPoint x="405" y="695" as="targetPoint" />
          </mxGeometry>
        </mxCell>
      </root>
    </mxGraphModel>
  </diagram>
</mxfile>
